HIERARCHY
ROOT Hips
{
	OFFSET	0.00	0.00	0.00
	CHANNELS 6 Xposition Yposition Zposition Zrotation Xrotation Yrotation
	JOINT LeftUpLeg
	{
		OFFSET	 0.126116	-0.014019	-0.065224
		CHANNELS 3 Zrotation Xrotation Yrotation
		JOINT LeftLeg
		{
			OFFSET	 0.000000	 0.000000	 0.569914
			CHANNELS 3 Zrotation Xrotation Yrotation
			JOINT LeftFoot
			{
				OFFSET	 0.000000	 0.000000	 0.544423
				CHANNELS 3 Zrotation Xrotation Yrotation
				JOINT LeftToeBase
				{
					OFFSET	 0.000000	 0.000000	 0.207117
					CHANNELS 3 Zrotation Xrotation Yrotation
					End Site
					{
						OFFSET	 0.000000	 0.000000	 0.207117
					}
				}
			}
		}
	}
	JOINT RightUpLeg
	{
		OFFSET	-0.124023	-0.008373	-0.065224
		CHANNELS 3 Zrotation Xrotation Yrotation
		JOINT RightLeg
		{
			OFFSET	 0.000000	 0.000000	 0.570047
			CHANNELS 3 Zrotation Xrotation Yrotation
			JOINT RightFoot
			{
				OFFSET	 0.000000	 0.000000	 0.544354
				CHANNELS 3 Zrotation Xrotation Yrotation
				JOINT RightToeBase
				{
					OFFSET	 0.000000	 0.000000	 0.207540
					CHANNELS 3 Zrotation Xrotation Yrotation
					End Site
					{
						OFFSET	 0.000000	 0.000000	 0.207540
					}
				}
			}
		}
	}
	JOINT Spine
	{
		OFFSET	 0.000184	-0.007763	 0.117403
		CHANNELS 3 Zrotation Xrotation Yrotation
		JOINT Spine1
		{
			OFFSET	 0.000000	 0.000000	 0.137269
			CHANNELS 3 Zrotation Xrotation Yrotation
			JOINT Spine2
			{
				OFFSET	 0.000000	 0.000000	 0.156879
				CHANNELS 3 Zrotation Xrotation Yrotation
				JOINT LeftShoulder
				{
					OFFSET	 0.080501	-0.002496	 0.160144
					CHANNELS 3 Zrotation Xrotation Yrotation
					JOINT LeftArm
					{
						OFFSET	 0.000000	 0.000000	 0.164363
						CHANNELS 3 Zrotation Xrotation Yrotation
						JOINT LeftForeArm
						{
							OFFSET	 0.000000	 0.000000	 0.364576
							CHANNELS 3 Zrotation Xrotation Yrotation
							JOINT LeftHand
							{
								OFFSET	 0.000000	 0.000000	 0.360812
								CHANNELS 3 Zrotation Xrotation Yrotation
								JOINT LeftHandIndex1
								{
									OFFSET	 0.000000	 0.000000	 0.086006
									CHANNELS 3 Zrotation Xrotation Yrotation
									JOINT LeftHandIndex2
									{
										OFFSET	 0.000000	 0.000000	 0.047236
										CHANNELS 3 Zrotation Xrotation Yrotation
										JOINT LeftHandIndex3
										{
											OFFSET	-0.004284	-0.000551	 0.038166
											CHANNELS 3 Zrotation Xrotation Yrotation
											End Site
											{
												OFFSET	-0.004284	-0.000551	 0.038166
											}
										}
									}
								}
							}
						}
					}
				}
				JOINT Neck
				{
					OFFSET	 0.000000	 0.000000	 0.176489
					CHANNELS 3 Zrotation Xrotation Yrotation
					JOINT Head
					{
						OFFSET	 0.000000	-0.001747	 0.077940
						CHANNELS 3 Zrotation Xrotation Yrotation
						End Site
						{
							OFFSET	 0.000000	-0.001747	 0.077940
						}
					}
				}
				JOINT RightShoulder
				{
					OFFSET	-0.080363	 0.000306	 0.159706
					CHANNELS 3 Zrotation Xrotation Yrotation
					JOINT RightArm
					{
						OFFSET	 0.000000	 0.000000	 0.164196
						CHANNELS 3 Zrotation Xrotation Yrotation
						JOINT RightForeArm
						{
							OFFSET	 0.000000	 0.000000	 0.365611
							CHANNELS 3 Zrotation Xrotation Yrotation
							JOINT RightHand
							{
								OFFSET	 0.000000	 0.000000	 0.360648
								CHANNELS 3 Zrotation Xrotation Yrotation
								JOINT RightHandIndex1
								{
									OFFSET	 0.000000	 0.000000	 0.069977
									CHANNELS 3 Zrotation Xrotation Yrotation
									JOINT RightHandIndex2
									{
										OFFSET	 0.000000	 0.000000	 0.052305
										CHANNELS 3 Zrotation Xrotation Yrotation
										JOINT RightHandIndex3
										{
											OFFSET	 0.009002	-0.000782	 0.042196
											CHANNELS 3 Zrotation Xrotation Yrotation
											End Site
											{
												OFFSET	 0.009002	-0.000782	 0.042196
											}
										}
									}
								}
							}
						}
					}
				}
			}
		}
	}
}
MOTION
Frames:    13
Frame Time: 0.03333334
-0.059436	-2.243732	 1.240372	 4.328118	-1.683744	-3.615695	 0.630904	-6.826022	-171.341000	 0.494951	-28.388090	 0.055071	 22.811540	 71.085520	-25.728020	-2.370920	 31.359270	-0.064143	-3.677776	-29.606210	-175.054600	 10.173400	-51.879040	 8.639580	 8.848764	 64.731530	-4.710607	 2.358108	 33.126690	 0.106165	-9.934302	 8.150291	 1.225881	 1.195495	 5.392257	 2.687121	-7.249815	-5.900592	-3.835719	-93.813260	 58.901120	 175.662700	 18.440320	 38.016670	-40.608510	-14.551130	 2.100404	-8.602920	 7.495912	-49.823170	 0.626096	-4.869359	 19.242340	-2.786474	-3.888987	 21.377280	 2.210330	-4.808246	 5.545631	 0.146960	-0.112822	-5.031062	 0.165324	-9.068561	 0.338817	 2.015631	 89.818240	 61.599530	-179.913900	-20.464010	 52.953640	 6.960222	 11.639300	 2.798798	 24.516010	-14.968560	-34.947760	-5.273486	 6.301533	 25.688210	-0.567269	 1.771803	 45.603450	-6.891505	 0.398808	 24.832530	 3.633374
-0.060537	-2.267264	 1.240300	 4.871513	-1.424307	-3.615115	-0.006640	-5.785161	-171.492500	 0.787291	-27.965950	 0.203799	 23.003410	 71.646670	-26.203400	-2.369952	 31.521910	-0.067826	-4.812568	-31.174300	-175.015500	 10.120410	-49.030240	 8.256265	 9.654917	 66.082470	-6.092882	 2.358663	 33.045500	 0.104278	-10.101900	 8.041375	 1.151657	 1.177479	 5.336559	 2.745264	-7.493319	-5.898011	-3.888580	-93.914020	 58.981530	 175.438000	 17.967910	 36.682890	-41.642200	-15.105630	 2.106966	-8.604625	 7.353696	-49.695200	-0.377251	-4.869110	 19.247350	-2.786521	-3.884952	 21.428940	 2.206235	-4.808268	 5.545427	 0.146971	-0.082687	-5.067026	 0.180670	-9.201987	 0.342505	 1.881039	 89.786580	 61.639760	-179.989300	-20.201610	 53.491860	 5.713554	 11.480630	 2.759567	 24.624360	-15.399700	-34.212650	-5.487761	 6.295105	 24.998440	-0.545061	 1.868303	 44.839280	-6.977781	 0.513455	 24.332410	 3.574769
-0.061688	-2.291168	 1.239545	 5.369924	-1.073579	-3.638080	-0.567784	-4.832125	-171.625400	 1.014171	-27.570550	 0.306151	 23.195630	 72.206100	-26.586910	-2.369083	 31.667140	-0.071105	-6.028617	-32.708100	-175.061100	 10.154660	-45.749230	 7.862781	 10.165670	 67.038540	-7.222934	 2.358949	 33.003380	 0.103297	-10.181190	 7.844873	 1.067994	 1.162242	 5.307402	 2.848838	-7.736380	-5.910038	-3.967520	-94.023980	 59.017370	 175.198700	 17.362890	 35.332130	-42.617630	-15.434940	 2.110405	-8.603880	 7.569894	-49.404070	-0.987643	-4.866896	 19.306880	-2.790990	-3.879417	 21.499810	 2.200611	-4.806648	 5.564535	 0.145858	-0.056113	-5.092461	 0.206736	-9.346554	 0.351187	 1.777991	 89.747540	 61.687810	 179.917500	-19.907810	 54.015000	 4.384387	 11.206360	 2.692308	 24.908710	-15.893560	-33.292900	-5.671988	 6.285693	 24.218720	-0.542263	 1.965428	 44.046320	-7.064232	 0.663234	 23.672130	 3.499445
-0.062930	-2.315534	 1.238181	 5.835311	-0.653752	-3.679564	-1.094324	-3.948151	-171.751800	 1.171941	-27.214580	 0.374676	 23.390920	 72.786600	-26.901810	-2.368284	 31.799170	-0.074104	-7.339146	-34.094730	-175.233800	 10.196320	-41.996620	 7.378909	 10.945220	 67.990590	-8.700460	 2.359032	 32.991020	 0.103017	-10.193080	 7.581308	 0.976111	 1.145715	 5.289205	 2.986979	-7.977552	-5.928493	-4.065623	-94.141140	 59.019540	 174.948500	 16.675510	 33.981220	-43.537140	-15.594980	 2.111534	-8.603959	 8.061036	-48.937230	-1.314118	-4.863179	 19.407910	-2.798828	-3.872722	 21.585270	 2.193812	-4.803777	 5.598340	 0.143872	-0.032237	-5.109870	 0.240933	-9.498407	 0.364084	 1.698959	 89.702990	 61.741790	 179.810600	-19.581250	 54.515000	 3.019911	 10.846530	 2.597404	 25.256080	-16.421200	-32.177990	-5.813848	 6.273742	 23.370550	-0.554196	 2.062182	 43.231410	-7.149950	 0.838463	 22.889860	 3.413126
-0.064267	-2.343887	 1.236038	 6.193033	-0.188032	-3.843268	-1.505716	-2.818369	-171.787200	 1.311556	-26.706150	 0.430948	 23.885520	 73.602280	-27.506370	-2.367009	 32.007220	-0.078838	-8.342716	-35.326760	-175.348100	 10.170890	-37.252200	 6.666646	 11.678420	 67.729170	-10.318430	 2.359987	 32.850160	 0.099740	-10.063950	 7.243834	 0.996182	 1.142339	 5.385633	 3.116663	-8.227057	-5.966650	-4.173070	-94.261780	 58.991420	 174.695300	 15.831500	 32.479590	-44.573590	-15.973270	 2.112506	-8.596788	 8.824770	-48.202200	-0.990818	-4.855556	 19.591520	-2.808760	-3.862451	 21.716100	 2.183369	-4.797915	 5.667377	 0.139827	-0.015331	-5.143303	 0.278832	-9.680955	 0.378108	 1.650575	 89.634120	 61.826030	 179.644900	-19.116810	 55.042470	 1.563425	 10.247820	 2.418318	 25.509640	-17.212030	-30.567150	-6.143760	 6.256560	 22.297820	-0.583732	 2.164929	 42.337750	-7.240519	 1.069931	 21.840410	 3.302173
-0.065491	-2.368805	 1.233779	 6.413911	 0.209301	-4.043164	-1.763834	-1.789529	-171.770000	 1.411378	-26.250080	 0.468276	 24.528700	 74.414600	-28.231710	-2.365673	 32.218430	-0.083666	-8.931056	-36.105300	-175.417200	 10.150630	-32.919640	 5.979274	 12.080360	 66.759910	-11.481070	 2.361239	 32.660480	 0.095368	-9.877033	 6.930255	 1.077066	 1.140833	 5.501349	 3.213394	-8.426806	-5.994585	-4.260752	-94.359770	 58.950890	 174.492600	 15.110320	 31.256880	-45.406500	-16.401370	 2.112644	-8.588590	 9.557763	-47.357510	-0.384948	-4.847147	 19.787270	-2.817923	-3.852106	 21.847380	 2.172858	-4.791443	 5.743550	 0.135357	-0.006166	-5.179546	 0.311182	-9.842404	 0.390581	 1.630722	 89.565000	 61.911310	 179.477400	-18.653030	 55.445120	 0.436938	 9.631060	 2.221642	 25.481630	-17.955970	-28.896350	-6.477076	 6.239378	 21.310520	-0.617805	 2.249336	 41.580910	-7.314547	 1.285743	 20.845520	 3.201948
-0.066846	-2.393377	 1.231308	 6.526898	 0.454677	-4.222754	-1.945845	-0.615244	-171.773500	 1.475654	-25.846100	 0.489608	 24.971380	 75.051070	-28.714290	-2.362858	 32.657110	-0.093733	-8.862765	-36.548480	-175.351800	 9.864042	-28.970330	 5.212813	 15.146540	 67.850750	-15.044320	 2.358326	 33.094890	 0.105426	-9.685066	 6.675201	 1.175511	 1.142954	 5.729589	 3.244653	-8.585956	-6.030545	-4.309070	-94.423100	 58.912030	 174.364000	 14.342710	 30.278640	-46.110380	-16.749760	 2.111144	-8.579823	 10.055780	-46.125890	 0.060610	-4.837449	 19.987260	-2.821421	-3.839436	 22.007570	 2.159990	-4.782174	 5.852472	 0.128946	 0.006638	-5.223635	 0.329139	-9.973267	 0.394593	 1.592609	 89.507220	 61.972400	 179.336900	-18.064850	 55.756130	-0.569253	 8.959523	 2.005939	 25.168050	-18.675330	-27.125720	-6.936124	 6.219934	 20.268330	-0.658743	 2.374844	 40.416010	-7.423964	 1.511654	 19.787370	 3.100460
-0.068794	-2.422779	 1.227376	 6.606476	 0.668102	-4.424985	-2.130397	 0.857901	-171.801500	 1.536395	-25.491900	 0.509494	 25.514730	 75.822300	-29.286080	-2.358577	 33.291290	-0.108433	-8.100610	-37.664030	-175.013900	 9.649241	-25.847450	 4.578084	 21.973290	 70.544620	-22.250500	 2.352458	 33.923980	 0.124857	-9.448540	 6.404674	 1.301278	 1.145119	 6.051442	 3.246612	-8.749762	-6.073903	-4.343440	-94.480600	 58.866950	 174.248900	 13.460680	 29.307240	-46.889600	-17.114160	 2.107203	-8.565646	 10.473550	-44.326310	 0.433532	-4.825284	 20.226260	-2.822728	-3.823206	 22.211820	 2.143505	-4.769767	 5.997951	 0.120351	 0.023627	-5.279774	 0.343225	-10.109360	 0.396444	 1.538627	 89.444580	 62.032510	 179.183900	-17.286730	 56.043060	-1.778888	 8.118474	 1.745304	 24.775700	-19.429090	-24.826820	-7.474379	 6.195148	 19.006500	-0.710700	 2.537700	 38.830630	-7.564673	 1.781347	 18.502130	 2.984016
-0.070891	-2.448967	 1.222987	 6.737077	 0.707204	-4.568043	-2.367778	 2.297781	-171.877100	 1.632841	-25.261160	 0.546361	 25.504650	 76.263520	-29.316500	-2.350777	 34.370350	-0.133830	-7.814665	-39.237660	-174.874800	 9.881330	-24.554640	 4.463732	 24.594710	 70.685550	-25.456420	 2.345373	 34.856900	 0.147082	-9.361484	 6.427944	 1.371351	 1.141732	 6.127203	 3.310659	-8.873528	-6.088994	-4.403522	-94.511950	 58.874690	 174.181000	 12.683380	 28.727960	-47.490120	-17.163690	 2.100187	-8.552010	 10.584140	-42.940720	 0.263980	-4.830909	 20.355610	-2.893094	-3.808851	 22.391490	 2.128922	-4.755219	 6.168228	 0.110244	 0.055688	-5.328961	 0.349381	-10.186400	 0.443358	 1.413934	 89.404870	 62.017570	 179.088300	-16.500980	 56.201070	-3.137109	 7.470096	 1.543761	 24.734090	-19.817880	-22.920950	-7.857474	 6.180201	 17.890770	-0.711620	 2.679860	 37.374360	-7.686244	 2.014140	 17.373930	 2.887766
-0.073272	-2.476441	 1.217971	 6.886050	 0.708942	-4.704597	-2.634223	 3.824861	-171.976400	 1.742027	-25.068140	 0.588737	 25.356990	 76.700950	-29.209780	-2.341007	 35.604840	-0.163513	-7.608471	-41.131340	-174.787000	 10.276000	-24.055880	 4.544619	 26.636410	 70.583820	-28.182490	 2.337139	 35.862730	 0.171490	-9.302471	 6.516288	 1.432819	 1.128966	 6.113343	 3.388846	-8.989434	-6.079234	-4.466763	-94.539310	 58.894340	 174.119800	 11.937130	 28.257880	-48.037010	-17.141180	 2.090617	-8.533806	 10.627570	-41.441980	-0.069859	-4.840571	 20.467950	-2.982414	-3.794085	 22.575440	 2.113925	-4.739381	 6.353117	 0.099225	 0.092819	-5.379243	 0.354203	-10.250920	 0.503787	 1.268162	 89.367940	 61.985360	 179.000400	-15.664670	 56.305530	-4.579739	 6.817413	 1.337256	 24.752070	-20.070340	-20.862340	-8.172754	 6.166970	 16.746950	-0.701796	 2.820104	 35.867790	-7.804911	 2.248879	 16.219100	 2.794799
-0.076648	-2.508699	 1.212149	 7.038087	 0.667717	-4.630751	-2.973856	 5.515943	-172.342100	 1.983916	-25.126870	 0.692799	 23.731330	 76.579080	-27.666010	-2.318568	 38.072160	-0.225098	-7.418645	-42.993140	-174.985500	 10.270180	-23.790600	 4.495206	 23.049300	 68.427510	-24.761130	 2.336556	 35.932330	 0.173190	-9.294710	 6.561297	 1.361694	 1.131929	 6.150200	 3.365624	-9.110719	-6.021870	-4.498459	-94.535530	 59.028320	 174.105600	 11.139570	 27.932400	-48.596090	-17.123070	 2.077850	-8.509773	 10.451920	-39.680890	-0.681030	-4.857627	 20.540590	-3.103048	-3.779481	 22.756460	 2.099106	-4.716199	 6.622922	 0.083036	 0.135116	-5.430710	 0.322858	-10.284190	 0.594492	 1.152337	 89.357430	 61.843980	 178.980300	-14.840500	 56.284390	-6.121081	 6.151448	 1.116511	 24.875590	-20.230960	-18.468160	-8.366542	 6.172058	 15.448470	-0.589604	 2.925164	 34.691300	-7.892914	 2.504581	 14.942110	 2.698337
-0.079652	-2.536776	 1.207675	 7.162850	 0.621753	-4.506470	-3.257733	 6.910506	-172.717100	 2.219161	-25.277120	 0.797192	 21.989410	 76.327750	-25.992060	-2.293287	 40.415640	-0.286825	-7.292779	-44.007310	-175.259600	 10.138870	-23.483660	 4.386764	 19.834150	 66.286250	-21.522520	 2.338298	 35.726460	 0.168151	-9.311175	 6.584850	 1.262833	 1.121831	 6.100285	 3.314037	-9.202298	-5.918752	-4.504827	-94.523710	 59.168840	 174.107300	 10.543960	 27.783730	-48.902280	-17.104650	 2.065171	-8.485592	 10.255250	-38.076130	-1.278486	-4.873474	 20.588340	-3.209522	-3.767678	 22.902220	 2.087114	-4.695300	 6.865206	 0.068399	 0.170800	-5.472740	 0.287359	-10.298640	 0.677224	 1.067902	 89.356310	 61.698900	 178.983000	-14.190330	 56.209310	-7.257153	 5.600109	 0.936574	 24.843680	-20.271020	-16.328430	-8.452446	 6.183366	 14.353630	-0.470863	 2.999672	 33.830970	-7.954842	 2.715670	 13.873480	 2.622571
-0.083619	-2.570551	 1.203563	 7.321568	 0.422784	-4.070344	-3.340112	 8.604472	-173.554000	 2.038999	-25.719700	 0.731964	 18.777660	 75.140760	-22.312350	-2.234332	 44.763680	-0.411612	-6.529749	-43.836410	-175.546200	 8.445272	-22.793290	 3.591659	 14.395730	 62.910360	-14.027030	 2.339695	 35.559650	 0.164073	-9.378913	 6.616452	 0.837919	 1.082509	 6.132843	 3.311346	-9.311076	-5.769743	-4.580486	-94.489200	 59.280400	 174.162600	 10.028740	 27.616100	-49.070730	-17.181620	 2.049782	-8.456111	 10.155800	-35.614880	-1.786440	-4.884774	 20.653980	-3.296139	-3.759761	 22.999600	 2.079074	-4.664742	 7.217961	 0.046916	 0.217094	-5.478868	 0.261569	-10.300110	 0.792746	 1.170463	 89.354950	 61.550980	 178.985200	-13.591780	 56.074280	-8.148499	 5.019593	 0.762979	 24.531390	-20.297730	-13.794490	-8.295726	 6.224662	 13.108000	-0.216764	 3.071124	 32.985290	-8.013827	 2.933798	 12.756090	 2.548049
